<svg xmlns="http://www.w3.org/2000/svg" width="1400" height="900" viewBox="0 0 1400 900">
  <rect width="1400" height="900" fill="#101112"/>
  <text x="50" y="70" fill="#d8dde0" font-family="Arial" font-size="38" font-weight="700">LEVEL 1 - HABITABLE ZONE / MAPA</text>
  <text x="50" y="110" fill="#aeb8ba" font-family="Arial" font-size="20">Magazynowo-parkingowa strefa przejsciowa: beton, filary, mokre rury, daleki slad ludzi.</text>
  <rect x="70" y="150" width="900" height="650" fill="#4d5253" stroke="#b9c0bd" stroke-width="8"/>
  <g fill="#2f3334" stroke="#b9c0bd" stroke-width="4">
    <rect x="70" y="150" width="900" height="35"/>
    <rect x="70" y="765" width="900" height="35"/>
    <rect x="70" y="150" width="35" height="650"/>
    <rect x="935" y="150" width="35" height="650"/>
    <rect x="240" y="250" width="45" height="45"/>
    <rect x="430" y="250" width="45" height="45"/>
    <rect x="620" y="250" width="45" height="45"/>
    <rect x="810" y="250" width="45" height="45"/>
    <rect x="240" y="455" width="45" height="45"/>
    <rect x="430" y="455" width="45" height="45"/>
    <rect x="620" y="455" width="45" height="45"/>
    <rect x="810" y="455" width="45" height="45"/>
    <rect x="260" y="625" width="300" height="32"/>
    <rect x="640" y="585" width="32" height="180"/>
  </g>
  <path d="M150 690 C300 600 420 620 520 500 C610 390 760 390 865 255" stroke="#f0e9b8" stroke-width="10" stroke-dasharray="26 20" fill="none"/>
  <circle cx="150" cy="690" r="26" fill="#3b8ae0"/>
  <rect x="832" y="220" width="62" height="72" fill="#45d0aa"/>
  <rect x="500" y="470" width="80" height="44" fill="#e4c35d"/>
  <text x="1050" y="190" fill="#d8dde0" font-family="Arial" font-size="30" font-weight="700">Gameplay</text>
  <text x="1050" y="245" fill="#d8dde0" font-family="Arial" font-size="22">- pierwsze slady ludzi</text>
  <text x="1050" y="285" fill="#d8dde0" font-family="Arial" font-size="22">- filary zaslaniaja widok</text>
  <text x="1050" y="325" fill="#d8dde0" font-family="Arial" font-size="22">- bez pelnej walki, tylko presja</text>
  <text x="1050" y="365" fill="#d8dde0" font-family="Arial" font-size="22">- wyjscie przez zbyt dlugi korytarz</text>
</svg>
