<svg xmlns="http://www.w3.org/2000/svg" width="1024" height="1024" viewBox="0 0 1024 1024">
  <title>Level 0 Minimal Map Mock</title>
  <rect width="1024" height="1024" fill="#11100b"/>
  <rect x="84" y="84" width="856" height="856" fill="#746344" stroke="#d7c071" stroke-width="18"/>
  <g fill="#c6ae5e">
    <rect x="84" y="84" width="856" height="40"/>
    <rect x="84" y="900" width="856" height="40"/>
    <rect x="84" y="84" width="40" height="856"/>
    <rect x="900" y="84" width="40" height="856"/>
    <rect x="210" y="124" width="40" height="270"/>
    <rect x="360" y="250" width="40" height="260"/>
    <rect x="500" y="124" width="40" height="180"/>
    <rect x="650" y="240" width="40" height="300"/>
    <rect x="220" y="545" width="310" height="40"/>
    <rect x="560" y="690" width="250" height="40"/>
  </g>
  <rect x="730" y="760" width="120" height="88" fill="#040404" stroke="#2a2618" stroke-width="8"/>
  <rect x="410" y="740" width="120" height="80" fill="#5a1714" stroke="#9f3b2d" stroke-width="8"/>
  <circle cx="165" cy="830" r="28" fill="#2f7dd6"/>
  <circle cx="575" cy="330" r="25" fill="#8f1e18"/>
  <circle cx="695" cy="590" r="25" fill="#8f1e18"/>
  <rect x="820" y="820" width="54" height="70" fill="#38d29f"/>
  <path d="M165 830 C250 720 330 610 430 560 C555 500 610 600 695 635 C790 675 815 780 847 852" stroke="#f4e7b8" stroke-width="12" stroke-dasharray="28 24" fill="none" opacity="0.65"/>
</svg>
