<svg xmlns="http://www.w3.org/2000/svg" width="512" height="512" viewBox="0 0 512 512">
  <title>Level 0 Yellow Wallpaper Tile</title>
  <defs>
    <filter id="noise">
      <feTurbulence type="fractalNoise" baseFrequency="0.95" numOctaves="3" seed="17"/>
      <feColorMatrix type="saturate" values="0"/>
      <feComponentTransfer>
        <feFuncA type="table" tableValues="0 0.16"/>
      </feComponentTransfer>
    </filter>
  </defs>
  <rect width="512" height="512" fill="#c7b161"/>
  <rect width="512" height="512" filter="url(#noise)" opacity="0.35"/>
  <g fill="none" stroke="#9f8845" stroke-width="7" opacity="0.42">
    <path d="M18 66 C72 10 150 12 202 66 S330 122 384 66 S468 10 512 48"/>
    <path d="M18 194 C72 138 150 140 202 194 S330 250 384 194 S468 138 512 176"/>
    <path d="M18 322 C72 266 150 268 202 322 S330 378 384 322 S468 266 512 304"/>
    <path d="M18 450 C72 394 150 396 202 450 S330 506 384 450 S468 394 512 432"/>
  </g>
  <g stroke="#d6c476" stroke-width="2" opacity="0.35">
    <path d="M0 128 H512 M0 256 H512 M0 384 H512"/>
    <path d="M128 0 V512 M256 0 V512 M384 0 V512"/>
  </g>
  <path d="M55 405 C120 390 180 430 252 404 C330 375 390 420 462 390" stroke="#736235" stroke-width="9" opacity="0.2" fill="none"/>
</svg>
