<svg xmlns="http://www.w3.org/2000/svg" width="1400" height="900" viewBox="0 0 1400 900">
  <rect width="1400" height="900" fill="#070b12"/>
  <text x="50" y="70" fill="#9dd6ff" font-family="Arial" font-size="38" font-weight="700">LEVEL 3 - ELECTRICAL STATION / MAPA</text>
  <text x="50" y="110" fill="#83b9d8" font-family="Arial" font-size="20">Ciemne, glosne, waskie korytarze; maszyny i swiatlo elektryczne prowadza rytm walki.</text>
  <rect x="100" y="150" width="760" height="650" fill="#172333" stroke="#4db8ff" stroke-width="8"/>
  <g fill="#0b111b" stroke="#4db8ff" stroke-width="4">
    <rect x="100" y="150" width="760" height="35"/>
    <rect x="100" y="765" width="760" height="35"/>
    <rect x="100" y="150" width="35" height="650"/>
    <rect x="825" y="150" width="35" height="650"/>
    <rect x="220" y="185" width="35" height="480"/>
    <rect x="360" y="300" width="35" height="465"/>
    <rect x="500" y="185" width="35" height="430"/>
    <rect x="640" y="300" width="35" height="465"/>
  </g>
  <g fill="#67d6ff" opacity="0.9">
    <rect x="280" y="245" width="48" height="26"/>
    <rect x="555" y="405" width="48" height="26"/>
    <rect x="695" y="620" width="48" height="26"/>
  </g>
  <path d="M165 710 C250 630 310 660 335 530 C360 400 470 480 505 330 C540 200 700 250 780 210" stroke="#e6f7ff" stroke-width="10" stroke-dasharray="26 20" fill="none"/>
  <circle cx="165" cy="710" r="26" fill="#3b8ae0"/>
  <circle cx="505" cy="330" r="34" fill="#b82019"/>
  <rect x="750" y="182" width="58" height="70" fill="#45d0aa"/>
  <text x="945" y="190" fill="#9dd6ff" font-family="Arial" font-size="30" font-weight="700">Rytm</text>
  <text x="945" y="245" fill="#9dd6ff" font-family="Arial" font-size="22">- maszyny zagluszaja kroki</text>
  <text x="945" y="285" fill="#9dd6ff" font-family="Arial" font-size="22">- blysk laduje sie wolniej</text>
  <text x="945" y="325" fill="#9dd6ff" font-family="Arial" font-size="22">- glosne korytarze = pewnosc falszywa</text>
</svg>
