<svg xmlns="http://www.w3.org/2000/svg" width="1400" height="900" viewBox="0 0 1400 900">
  <rect width="1400" height="900" fill="#111318"/>
  <text x="50" y="70" fill="#dbe4e7" font-family="Arial" font-size="38" font-weight="700">LEVEL 4 - ABANDONED OFFICE / MAPA</text>
  <text x="50" y="110" fill="#b8c4c8" font-family="Arial" font-size="20">Puste biuro, okna-pulapki, czarne szyby i dlugie sale bez mebli.</text>
  <rect x="85" y="150" width="880" height="650" fill="#596166" stroke="#dbe4e7" stroke-width="8"/>
  <g fill="#33393d" stroke="#dbe4e7" stroke-width="4">
    <rect x="85" y="150" width="880" height="35"/>
    <rect x="85" y="765" width="880" height="35"/>
    <rect x="85" y="150" width="35" height="650"/>
    <rect x="930" y="150" width="35" height="650"/>
    <rect x="235" y="185" width="35" height="210"/>
    <rect x="405" y="185" width="35" height="210"/>
    <rect x="575" y="185" width="35" height="210"/>
    <rect x="745" y="185" width="35" height="210"/>
    <rect x="220" y="520" width="620" height="35"/>
  </g>
  <g fill="#020304" stroke="#97c9ff" stroke-width="3">
    <rect x="170" y="160" width="60" height="18"/>
    <rect x="335" y="160" width="60" height="18"/>
    <rect x="500" y="160" width="60" height="18"/>
    <rect x="665" y="160" width="60" height="18"/>
    <rect x="830" y="160" width="60" height="18"/>
  </g>
  <path d="M150 710 C280 630 360 610 455 555 C570 485 650 505 760 410 C850 330 840 230 880 195" stroke="#f0f6f8" stroke-width="10" stroke-dasharray="26 20" fill="none"/>
  <circle cx="150" cy="710" r="26" fill="#3b8ae0"/>
  <rect x="850" y="170" width="58" height="70" fill="#45d0aa"/>
  <text x="1050" y="190" fill="#dbe4e7" font-family="Arial" font-size="30" font-weight="700">Zakazy</text>
  <text x="1050" y="245" fill="#dbe4e7" font-family="Arial" font-size="22">- nie podchodz do okien</text>
  <text x="1050" y="285" fill="#dbe4e7" font-family="Arial" font-size="22">- otwarte biuro = brak ukrycia</text>
  <text x="1050" y="325" fill="#dbe4e7" font-family="Arial" font-size="22">- cisza po maszynach z Level 3</text>
</svg>
